# xmcd
#
# Track frame offsets: 
#        150
#        10905
#        24163
#        39514
#        53791
#        66631
#        80865
#        94459
#        111387
#        125120
#        127241
#        139251
#        153981
#
# Disc length: 2269 seconds
#
# Revision: 0
# Processed by: cddbd v1.5.2PL0 Copyright (c) Steve Scherf et al.
# Submitted via: ExactAudioCopyFreeDBPlugin 1.0
#
DISCID=c308db0d
DTITLE=Tejas Brothers - Rich Man
DYEAR=2011
DGENRE=Country
TTITLE0=Say It Again
TTITLE1=Diamond In The Rough
TTITLE2=This Little Feeling
TTITLE3=The Castle
TTITLE4=Your Baby, My Honey
TTITLE5=Wiggle
TTITLE6=Long Way To Texas
TTITLE7=La Madrina
TTITLE8=How I've Been
TTITLE9=Take This Pain From My Heart Intro: Singing With The Rich Man
TTITLE10=Take This Pain From My Heart
TTITLE11=On To Something
TTITLE12=Rich Man
EXTD=
EXTT0=
EXTT1=
EXTT2=
EXTT3=
EXTT4=
EXTT5=
EXTT6=
EXTT7=
EXTT8=
EXTT9=
EXTT10=
EXTT11=
EXTT12=
PLAYORDER=
